<svg width="374" height="147" viewBox="0 0 374 147" fill="none" xmlns="http://www.w3.org/2000/svg">
<g clip-path="url(#clip0_64_191)">
<path d="M217.392 74.384H224.832C225.824 74.384 226.608 74.288 227.184 74.096C227.792 73.904 228.256 73.616 228.576 73.232C228.896 72.816 229.136 72.32 229.296 71.744C229.488 71.136 229.696 70.272 229.92 69.152C229.92 69.152 229.952 69.024 230.016 68.768C230.176 67.968 230.256 67.328 230.256 66.848C230.256 66.016 230 65.44 229.488 65.12C229.008 64.8 228.144 64.64 226.896 64.64H219.456L217.392 74.384ZM204 92.288L211.632 56.288H230.16C233.872 56.352 236.56 56.864 238.224 57.824C239.888 58.752 240.72 60.528 240.72 63.152C240.72 64.304 240.56 65.648 240.24 67.184C239.824 69.104 239.456 70.576 239.136 71.6C238.848 72.624 238.4 73.584 237.792 74.48C237.216 75.344 236.384 76.096 235.296 76.736C234.208 77.376 232.8 77.888 231.072 78.272L230.976 78.656C232.672 78.72 233.984 79.152 234.912 79.952C235.84 80.752 236.304 81.872 236.304 83.312C236.304 83.824 236.24 84.4 236.112 85.04L234.576 92.288H224.976L226.032 87.248C226.192 86.64 226.272 86.096 226.272 85.616C226.272 84.688 226 83.984 225.456 83.504C224.944 82.992 224.144 82.736 223.056 82.736H215.616L213.6 92.288H204ZM253.161 92.576C250.889 92.576 248.905 92.448 247.209 92.192C245.513 91.936 244.025 91.488 242.745 90.848C241.497 90.176 240.521 89.248 239.817 88.064C239.145 86.848 238.809 85.328 238.809 83.504C238.809 82.256 238.969 80.88 239.289 79.376L241.449 69.2C242.025 66.512 242.889 64.304 244.041 62.576C245.225 60.816 246.649 59.472 248.313 58.544C249.977 57.584 251.833 56.928 253.881 56.576C255.929 56.192 258.281 56 260.937 56C263.209 56 265.193 56.128 266.889 56.384C268.585 56.64 270.057 57.104 271.305 57.776C272.553 58.416 273.513 59.344 274.185 60.56C274.889 61.744 275.241 63.248 275.241 65.072C275.241 66.32 275.081 67.696 274.761 69.2L272.601 79.376C272.025 82.064 271.161 84.288 270.009 86.048C268.857 87.776 267.449 89.12 265.785 90.08C264.121 91.008 262.249 91.664 260.169 92.048C258.121 92.4 255.785 92.576 253.161 92.576ZM254.937 84.224C256.313 84.224 257.417 84.16 258.249 84.032C259.081 83.904 259.801 83.648 260.409 83.264C261.017 82.88 261.513 82.304 261.897 81.536C262.313 80.736 262.665 79.664 262.953 78.32L264.681 70.208C264.905 69.152 265.017 68.272 265.017 67.568C265.017 66.224 264.585 65.36 263.721 64.976C262.857 64.56 261.337 64.352 259.161 64.352C257.785 64.352 256.681 64.416 255.849 64.544C255.017 64.672 254.313 64.928 253.737 65.312C253.161 65.696 252.665 66.272 252.249 67.04C251.833 67.808 251.465 68.864 251.145 70.208L249.417 78.32C249.225 79.376 249.129 80.24 249.129 80.912C249.129 82.32 249.545 83.232 250.377 83.648C251.209 84.032 252.729 84.224 254.937 84.224ZM287.71 92.576C285.438 92.576 283.454 92.448 281.758 92.192C280.062 91.936 278.574 91.488 277.294 90.848C276.046 90.176 275.07 89.248 274.366 88.064C273.694 86.848 273.358 85.328 273.358 83.504C273.358 82.256 273.518 80.88 273.838 79.376L275.998 69.2C276.574 66.512 277.438 64.304 278.59 62.576C279.774 60.816 281.198 59.472 282.862 58.544C284.526 57.584 286.382 56.928 288.43 56.576C290.478 56.192 292.83 56 295.486 56C297.758 56 299.742 56.128 301.438 56.384C303.134 56.64 304.606 57.104 305.854 57.776C307.102 58.416 308.062 59.344 308.734 60.56C309.438 61.744 309.79 63.248 309.79 65.072C309.79 66.32 309.63 67.696 309.31 69.2L307.15 79.376C306.574 82.064 305.71 84.288 304.558 86.048C303.406 87.776 301.998 89.12 300.334 90.08C298.67 91.008 296.798 91.664 294.718 92.048C292.67 92.4 290.334 92.576 287.71 92.576ZM289.486 84.224C290.862 84.224 291.966 84.16 292.798 84.032C293.63 83.904 294.35 83.648 294.958 83.264C295.566 82.88 296.062 82.304 296.446 81.536C296.862 80.736 297.214 79.664 297.502 78.32L299.23 70.208C299.454 69.152 299.566 68.272 299.566 67.568C299.566 66.224 299.134 65.36 298.27 64.976C297.406 64.56 295.886 64.352 293.71 64.352C292.334 64.352 291.23 64.416 290.398 64.544C289.566 64.672 288.862 64.928 288.286 65.312C287.71 65.696 287.214 66.272 286.798 67.04C286.382 67.808 286.014 68.864 285.694 70.208L283.966 78.32C283.774 79.376 283.678 80.24 283.678 80.912C283.678 82.32 284.094 83.232 284.926 83.648C285.758 84.032 287.278 84.224 289.486 84.224ZM321.49 64.688L316.594 92.288H306.994L314.626 56.288H329.842L331.906 78.896H332.242L343.57 56.288H359.17L351.538 92.288H341.938L348.754 64.688H348.418L333.442 92.288H325.138L321.778 64.688H321.49ZM362.066 92.432C360.978 92.432 359.978 92.256 359.066 91.904C358.154 91.536 357.362 91.024 356.69 90.368C356.034 89.712 355.53 88.944 355.178 88.064C354.826 87.184 354.65 86.232 354.65 85.208C354.65 84.584 354.722 83.944 354.866 83.288C355.122 82.04 355.602 80.864 356.306 79.76C357.026 78.64 357.89 77.664 358.898 76.832C359.922 75.984 361.042 75.328 362.258 74.864C363.474 74.384 364.706 74.144 365.954 74.144C367.026 74.144 368.018 74.328 368.93 74.696C369.842 75.048 370.626 75.552 371.282 76.208C371.954 76.848 372.466 77.616 372.818 78.512C373.17 79.392 373.346 80.344 373.346 81.368C373.346 81.992 373.282 82.632 373.154 83.288C372.882 84.52 372.394 85.696 371.69 86.816C370.986 87.936 370.122 88.92 369.098 89.768C368.074 90.6 366.954 91.256 365.738 91.736C364.522 92.2 363.298 92.432 362.066 92.432ZM362.498 90.344C363.442 90.344 364.378 90.168 365.306 89.816C366.25 89.448 367.114 88.936 367.898 88.28C368.698 87.624 369.37 86.872 369.914 86.024C370.474 85.16 370.858 84.248 371.066 83.288C371.162 82.792 371.21 82.304 371.21 81.824C371.21 81.024 371.074 80.288 370.802 79.616C370.53 78.928 370.138 78.336 369.626 77.84C369.114 77.328 368.506 76.936 367.802 76.664C367.098 76.376 366.33 76.232 365.498 76.232C364.538 76.232 363.586 76.416 362.642 76.784C361.714 77.136 360.85 77.64 360.05 78.296C359.266 78.952 358.602 79.712 358.058 80.576C357.514 81.424 357.146 82.328 356.954 83.288C356.842 83.8 356.786 84.296 356.786 84.776C356.786 85.576 356.922 86.32 357.194 87.008C357.466 87.68 357.858 88.272 358.37 88.784C358.882 89.28 359.49 89.664 360.194 89.936C360.898 90.208 361.666 90.344 362.498 90.344ZM366.338 85.016H368.474C368.106 86.152 367.426 87.056 366.434 87.728C365.458 88.4 364.394 88.736 363.242 88.736C361.898 88.736 360.85 88.352 360.098 87.584C359.346 86.816 358.97 85.808 358.97 84.56C358.97 84.128 359.018 83.68 359.114 83.216C359.29 82.432 359.57 81.696 359.954 81.008C360.338 80.32 360.81 79.728 361.37 79.232C361.93 78.736 362.562 78.352 363.266 78.08C363.97 77.808 364.722 77.672 365.522 77.672C366.674 77.672 367.586 77.992 368.258 78.632C368.93 79.256 369.266 80.144 369.266 81.296H367.13C367.13 80.704 366.946 80.24 366.578 79.904C366.226 79.568 365.746 79.4 365.138 79.4C364.162 79.4 363.322 79.776 362.618 80.528C361.914 81.264 361.45 82.144 361.226 83.168C361.162 83.472 361.13 83.776 361.13 84.08C361.13 84.896 361.338 85.592 361.754 86.168C362.186 86.728 362.802 87.008 363.602 87.008C364.194 87.008 364.762 86.824 365.306 86.456C365.85 86.072 366.194 85.592 366.338 85.016Z" fill="black"/>
</g>
<path d="M104.5 147C145.093 147 178 114.093 178 73.5C178 32.9071 145.093 0 104.5 0C63.9071 0 31 32.9071 31 73.5C31 114.093 63.9071 147 104.5 147Z" fill="#7DC9FF" fill-opacity="0.37"/>
<path d="M16.128 74.0959H23.568C24.56 74.0959 25.344 73.9999 25.92 73.8079C26.528 73.6159 26.992 73.3279 27.312 72.9439C27.632 72.5279 27.872 72.0319 28.032 71.4559C28.224 70.8479 28.432 69.9839 28.656 68.8639C28.656 68.8639 28.688 68.7359 28.752 68.4799C28.912 67.6799 28.992 67.0399 28.992 66.5599C28.992 65.7279 28.736 65.1519 28.224 64.8319C27.744 64.5119 26.88 64.3519 25.632 64.3519H18.192L16.128 74.0959ZM2.73602 91.9999L10.368 55.9999H28.896C32.608 56.0639 35.296 56.5759 36.96 57.5359C38.624 58.4639 39.456 60.2399 39.456 62.8639C39.456 64.0159 39.296 65.3599 38.976 66.8959C38.56 68.8159 38.192 70.2879 37.872 71.3119C37.584 72.3359 37.136 73.2959 36.528 74.1919C35.952 75.0559 35.12 75.8079 34.032 76.4479C32.944 77.0879 31.536 77.5999 29.808 77.9839L29.712 78.3679C31.408 78.4319 32.72 78.8639 33.648 79.6639C34.576 80.4639 35.04 81.5839 35.04 83.0239C35.04 83.5359 34.976 84.1119 34.848 84.7519L33.312 91.9999H23.712L24.768 86.9599C24.928 86.3519 25.008 85.8079 25.008 85.3279C25.008 84.3999 24.736 83.6959 24.192 83.2159C23.68 82.7039 22.88 82.4479 21.792 82.4479H14.352L12.336 91.9999H2.73602ZM52.377 63.8719L50.937 70.4479H66.297L64.905 77.1199H49.545L48.057 84.1279H64.761L63.081 91.9999H36.777L44.409 55.9999H70.377L68.745 63.8719H52.377ZM90.6683 78.3679H100.556L100.364 79.4239C99.8203 81.9519 99.1963 83.9839 98.4923 85.5199C97.7883 87.0559 96.5723 88.4319 94.8443 89.6479C93.2123 90.7999 91.5163 91.5359 89.7563 91.8559C87.9963 92.1439 85.7083 92.2879 82.8923 92.2879C80.3643 92.2879 78.2843 92.2079 76.6523 92.0479C75.0203 91.9199 73.5643 91.5839 72.2843 91.0399C71.0043 90.4959 69.9963 89.6479 69.2603 88.4959C68.5563 87.3119 68.2043 85.7279 68.2043 83.7439C68.2043 82.3039 68.4123 80.6079 68.8283 78.6559L70.7963 69.3439C71.4363 66.4319 72.3163 64.0799 73.4363 62.2879C74.5883 60.4639 75.9803 59.0879 77.6123 58.1599C79.2443 57.1999 81.0843 56.5599 83.1323 56.2399C85.2123 55.8879 87.7243 55.7119 90.6683 55.7119C92.9723 55.7119 94.8603 55.7919 96.3323 55.9519C97.8363 56.1119 99.1163 56.4319 100.172 56.9119C101.228 57.3919 102.012 58.1279 102.524 59.1199C103.068 60.0799 103.34 61.3599 103.34 62.9599C103.34 64.2399 103.164 65.7599 102.812 67.5199L102.524 68.9119H92.6363L92.9243 67.5199C92.9243 67.4239 92.9403 67.3119 92.9723 67.1839C92.9723 67.0879 92.9723 66.9919 92.9723 66.8959C92.9723 65.6799 92.5563 64.9119 91.7243 64.5919C90.9243 64.2399 89.6283 64.0639 87.8363 64.0639C86.4603 64.0639 85.3403 64.1919 84.4763 64.4479C83.6443 64.6719 82.9723 65.0399 82.4603 65.5519C81.9803 66.0319 81.5803 66.6879 81.2603 67.5199C80.9723 68.3199 80.6843 69.4399 80.3963 70.8799L79.1963 76.4959C78.7483 78.4799 78.5243 79.8879 78.5243 80.7199C78.5243 81.8719 78.8923 82.7039 79.6283 83.2159C80.3643 83.6959 81.6923 83.9359 83.6123 83.9359C85.8523 83.9359 87.4523 83.6799 88.4123 83.1679C89.3723 82.6239 90.0603 81.3759 90.4763 79.4239L90.6683 78.3679ZM115.51 92.2879C113.238 92.2879 111.254 92.1599 109.558 91.9039C107.862 91.6479 106.374 91.1999 105.094 90.5599C103.846 89.8879 102.87 88.9599 102.166 87.7759C101.494 86.5599 101.158 85.0399 101.158 83.2159C101.158 81.9679 101.318 80.5919 101.638 79.0879L103.798 68.9119C104.374 66.2239 105.238 64.0159 106.39 62.2879C107.574 60.5279 108.998 59.1839 110.662 58.2559C112.326 57.2959 114.182 56.6399 116.23 56.2879C118.278 55.9039 120.63 55.7119 123.286 55.7119C125.558 55.7119 127.542 55.8399 129.238 56.0959C130.934 56.3519 132.406 56.8159 133.654 57.4879C134.902 58.1279 135.862 59.0559 136.534 60.2719C137.238 61.4559 137.59 62.9599 137.59 64.7839C137.59 66.0319 137.43 67.4079 137.11 68.9119L134.95 79.0879C134.374 81.7759 133.51 83.9999 132.358 85.7599C131.206 87.4879 129.798 88.8319 128.134 89.7919C126.47 90.7199 124.598 91.3759 122.518 91.7599C120.47 92.1119 118.134 92.2879 115.51 92.2879ZM117.286 83.9359C118.662 83.9359 119.766 83.8719 120.598 83.7439C121.43 83.6159 122.15 83.3599 122.758 82.9759C123.366 82.5919 123.862 82.0159 124.246 81.2479C124.662 80.4479 125.014 79.3759 125.302 78.0319L127.03 69.9199C127.254 68.8639 127.366 67.9839 127.366 67.2799C127.366 65.9359 126.934 65.0719 126.07 64.6879C125.206 64.2719 123.686 64.0639 121.51 64.0639C120.134 64.0639 119.03 64.1279 118.198 64.2559C117.366 64.3839 116.662 64.6399 116.086 65.0239C115.51 65.4079 115.014 65.9839 114.598 66.7519C114.182 67.5199 113.814 68.5759 113.494 69.9199L111.766 78.0319C111.574 79.0879 111.478 79.9519 111.478 80.6239C111.478 82.0319 111.894 82.9439 112.726 83.3599C113.558 83.7439 115.078 83.9359 117.286 83.9359ZM147.995 74.0959H155.435C156.427 74.0959 157.211 73.9999 157.787 73.8079C158.395 73.6159 158.859 73.3279 159.179 72.9439C159.499 72.5279 159.739 72.0319 159.899 71.4559C160.091 70.8479 160.299 69.9839 160.523 68.8639C160.523 68.8639 160.555 68.7359 160.619 68.4799C160.779 67.6799 160.859 67.0399 160.859 66.5599C160.859 65.7279 160.603 65.1519 160.091 64.8319C159.611 64.5119 158.747 64.3519 157.499 64.3519H150.059L147.995 74.0959ZM134.603 91.9999L142.235 55.9999H160.763C164.475 56.0639 167.163 56.5759 168.827 57.5359C170.491 58.4639 171.323 60.2399 171.323 62.8639C171.323 64.0159 171.163 65.3599 170.843 66.8959C170.427 68.8159 170.059 70.2879 169.739 71.3119C169.451 72.3359 169.003 73.2959 168.395 74.1919C167.819 75.0559 166.987 75.8079 165.899 76.4479C164.811 77.0879 163.403 77.5999 161.675 77.9839L161.579 78.3679C163.275 78.4319 164.587 78.8639 165.515 79.6639C166.443 80.4639 166.907 81.5839 166.907 83.0239C166.907 83.5359 166.843 84.1119 166.715 84.7519L165.179 91.9999H155.579L156.635 86.9599C156.795 86.3519 156.875 85.8079 156.875 85.3279C156.875 84.3999 156.603 83.6959 156.059 83.2159C155.547 82.7039 154.747 82.4479 153.659 82.4479H146.219L144.203 91.9999H134.603ZM168.068 91.9999L175.7 55.9999H193.94C198.132 55.9999 201.204 56.7039 203.156 58.1119C205.108 59.4879 206.084 61.7759 206.084 64.9759C206.084 66.4159 205.892 68.0799 205.508 69.9679L203.876 77.5039C202.82 82.5919 201.06 86.2879 198.596 88.5919C196.164 90.8639 192.5 91.9999 187.604 91.9999H168.068ZM183.524 64.3519L179.444 83.6479H187.844C189.54 83.6479 190.884 83.1199 191.876 82.0639C192.868 81.0079 193.572 79.4879 193.988 77.5039L195.62 69.9679C195.812 68.9439 195.908 68.0959 195.908 67.4239C195.908 66.2399 195.588 65.4399 194.948 65.0239C194.34 64.5759 193.332 64.3519 191.924 64.3519H183.524Z" fill="black"/>
<defs>
<clipPath id="clip0_64_191">
<rect width="170" height="37" fill="white" transform="translate(204 56)"/>
</clipPath>
</defs>
</svg>
